<?xml version="1.0" standalone="no"?><!DOCTYPE svg PUBLIC "-//W3C//DTD SVG 1.1//EN" "http://www.w3.org/Graphics/SVG/1.1/DTD/svg11.dtd"><svg t="1603090822617" class="icon" viewBox="0 0 1024 1024" version="1.1" xmlns="http://www.w3.org/2000/svg" p-id="5167" xmlns:xlink="http://www.w3.org/1999/xlink" width="32" height="32"><defs><style type="text/css"></style></defs><path d="M727.370323 537.765161c-27.086452-14.534194-55.494194-26.425806-85.883871-35.674838 67.385806-42.941935 111.649032-118.255484 111.649032-203.47871C753.135484 165.16129 644.789677 56.815484 511.339355 56.815484 378.549677 56.815484 270.203871 165.16129 270.203871 298.611613c0 85.883871 44.923871 161.197419 111.649032 204.139355-188.283871 56.154839-325.037419 229.904516-325.037419 436.025806 0 7.267097 3.303226 15.194839 8.588387 20.48 5.285161 5.285161 12.552258 8.588387 20.48 7.927742 85.223226-0.660645 163.179355-1.32129 237.171613-1.32129 88.526452 0 171.767742 0.660645 254.348387 0.660645 15.855484 0 28.407742-12.552258 28.407742-28.407742s-12.552258-28.407742-28.407742-28.407742c-81.92-0.660645-165.16129-0.660645-254.348387-0.660645-65.403871 0-134.110968 0-208.103226 0.660645 15.194839-206.781935 186.962581-369.300645 397.047742-369.300645 68.046452 0 132.789677 17.176774 188.944516 47.566452 13.873548 7.267097 31.050323 1.981935 38.317419-11.230968 7.267097-14.534194 1.981935-31.710968-11.891612-38.978065zM327.019355 298.611613c0-102.4 82.580645-184.980645 184.980645-184.980645s184.980645 82.580645 184.980645 184.980645-82.580645 184.980645-184.980645 184.980645-184.980645-82.580645-184.980645-184.980645z" fill="#e6e6e6" p-id="5168"></path><path d="M939.437419 789.470968c18.498065-11.230968 29.729032-31.710968 29.729033-52.190968 0-10.570323-2.642581-21.80129-8.588387-31.710968-11.891613-19.819355-33.032258-30.389677-54.833549-30.389677-9.909677 0-20.48 2.642581-29.729032 7.267097-0.660645-0.660645-1.32129-0.660645-1.981936-1.321291-1.981935-33.692903-30.389677-58.797419-63.421935-58.797419s-61.44 25.104516-63.421936 58.797419c-0.660645 0.660645-1.32129 0.660645-1.981935 1.321291-9.249032-4.624516-19.819355-7.267097-29.729032-7.267097-21.140645 0-42.28129 10.570323-54.833549 30.389677-5.945806 9.909677-8.588387 20.48-8.588387 31.710968 0 21.140645 11.230968 40.96 29.729032 52.190968-18.498065 11.230968-29.729032 31.710968-29.729032 52.190967 0 10.570323 2.642581 21.80129 8.588387 31.710968 11.891613 19.819355 33.032258 30.389677 54.833549 30.389678 10.570323 0 21.140645-2.642581 31.050322-7.927742 1.32129 34.353548 29.729032 60.11871 63.421936 60.118709s62.100645-25.765161 63.421935-60.118709c9.909677 5.285161 20.48 7.927742 31.050323 7.927742 21.140645 0 42.28129-10.570323 54.833548-30.389678 5.945806-9.909677 8.588387-20.48 8.588387-31.710968 1.32129-21.140645-9.909677-40.96-28.407742-52.190967z m-27.747096 54.172903c-0.660645 1.32129-3.303226 3.303226-5.945807 3.303226-1.32129 0-2.642581 0-3.963871-0.660645l-20.48-11.230968c-9.249032-5.285161-21.140645-4.624516-29.729032 1.32129-4.624516 3.303226-9.909677 5.945806-15.194839 7.927742-11.230968 3.963871-18.498065 14.534194-18.498064 26.425807v23.12258c0 1.981935-1.981935 4.624516-6.606452 5.285162-4.624516 0-6.606452-3.303226-6.606452-5.285162v-23.12258c0-11.891613-7.267097-22.461935-18.498064-26.425807-5.285161-1.981935-10.570323-4.624516-15.194839-7.927742-9.249032-5.945806-20.48-6.606452-29.729032-1.32129l-20.48 11.230968c-1.32129 0.660645-2.642581 0.660645-3.963871 0.660645-2.642581 0-5.285161-1.32129-5.945806-3.303226l-0.660646-1.981936c0-1.32129 0.660645-2.642581 2.642581-3.96387l17.837419-9.909678c10.570323-5.945806 16.516129-18.498065 13.873549-30.389677-0.660645-3.963871-1.32129-7.927742-1.321291-11.891613 0-1.981935 0-4.624516 0.660646-6.606452 1.32129-11.230968-4.624516-22.461935-14.534194-28.407742l-16.516129-9.249032c-1.981935-1.32129-2.642581-2.642581-2.642581-3.963871l0.660646-1.981935c0.660645-1.32129 3.303226-3.303226 5.945806-3.303226 1.32129 0 2.642581 0 3.963871 0.660645l13.873548 7.927742c9.909677 5.945806 23.122581 4.624516 31.710968-3.303226 5.945806-4.624516 12.552258-8.588387 19.819355-11.230968 11.230968-3.963871 18.498065-14.534194 18.498064-26.425806v-14.534194c0-1.981935 1.981935-4.624516 6.606452-5.285161 4.624516 0 6.606452 3.303226 6.606452 5.285161v14.534194c0 11.891613 7.267097 22.461935 18.498064 26.425806 7.267097 2.642581 13.873548 6.606452 19.819355 11.230968 9.249032 7.267097 21.80129 8.588387 31.710968 3.303226l13.873548-7.927742c1.32129-0.660645 2.642581-0.660645 3.963871-0.660645 2.642581 0 5.285161 1.32129 5.945807 3.303226l0.660645 1.981935c0 1.32129-0.660645 2.642581-2.642581 3.963871l-16.516129 9.249032c-9.909677 5.285161-15.855484 16.516129-14.534193 28.407742 0 2.642581 0.660645 4.624516 0.660645 6.606452 0 3.963871-0.660645 7.927742-1.321291 11.891613-2.642581 11.891613 3.303226 24.443871 13.873549 30.389677l17.837419 9.909678c1.981935 1.32129 2.642581 2.642581 2.642581 3.96387l-0.660645 1.981936z" fill="#e6e6e6" p-id="5169"></path></svg>