<?xml version="1.0" standalone="no"?><!DOCTYPE svg PUBLIC "-//W3C//DTD SVG 1.1//EN" "http://www.w3.org/Graphics/SVG/1.1/DTD/svg11.dtd"><svg t="1597896113802" class="icon" viewBox="0 0 1024 1024" version="1.1" xmlns="http://www.w3.org/2000/svg" p-id="2154" xmlns:xlink="http://www.w3.org/1999/xlink" width="32" height="32"><defs><style type="text/css"></style></defs><path d="M888.746667 424.533333v-35.84a68.693333 68.693333 0 0 0-68.693334-68.693333H203.946667a68.693333 68.693333 0 0 0-68.693334 68.693333v174.933334a21.333333 21.333333 0 0 0 42.666667 0v-174.933334a26.026667 26.026667 0 0 1 26.026667-26.026666h616.106666a26.026667 26.026667 0 0 1 26.026667 26.026666v14.08h-192a92.586667 92.586667 0 0 0 0 184.746667h192v227.413333a26.026667 26.026667 0 0 1-26.026667 26.026667H203.946667a26.026667 26.026667 0 0 1-26.026667-26.026667v-101.973333h311.466667l-46.933334 46.933333a21.333333 21.333333 0 1 0 30.293334 30.293334L554.666667 707.413333a21.333333 21.333333 0 0 0 6.4-14.933333 20.906667 20.906667 0 0 0-7.68-15.786667l-81.493334-81.493333a21.333333 21.333333 0 0 0-30.293333 30.293333l46.08 46.08H156.586667a21.333333 21.333333 0 0 0-21.333334 21.333334v122.026666a68.693333 68.693333 0 0 0 68.693334 68.693334h616.106666a68.693333 68.693333 0 0 0 68.693334-68.693334v-248.32a21.333333 21.333333 0 0 0-21.333334-21.333333h-213.333333a49.92 49.92 0 0 1 0-99.413333h213.333333a21.333333 21.333333 0 0 0 21.333334-21.333334zM315.733333 280.746667h392.533334a21.333333 21.333333 0 0 0 20.48-24.746667l-26.453334-98.133333a21.333333 21.333333 0 0 0-26.026666-14.933334L310.186667 238.933333a21.333333 21.333333 0 0 0 5.546666 42.666667z m351.146667-93.013334l13.653333 50.773334H477.866667z" fill="#737373" p-id="2155"></path><path d="M651.946667 474.026667a21.333333 21.333333 0 0 0 0 42.666666h53.76a21.333333 21.333333 0 0 0 0-42.666666z" fill="#737373" p-id="2156"></path></svg>