<?xml version="1.0" standalone="no"?><!DOCTYPE svg PUBLIC "-//W3C//DTD SVG 1.1//EN" "http://www.w3.org/Graphics/SVG/1.1/DTD/svg11.dtd"><svg t="1597889720067" class="icon" viewBox="0 0 1024 1024" version="1.1" xmlns="http://www.w3.org/2000/svg" p-id="4907" xmlns:xlink="http://www.w3.org/1999/xlink" width="32" height="32"><defs><style type="text/css"></style></defs><path d="M329.134629 950.858971h658.269257a36.570514 36.570514 0 1 1 0 73.141029h-658.269257a36.570514 36.570514 0 1 1 0-73.141029z m0-219.423085h658.269257a36.570514 36.570514 0 1 1 0 73.141028h-658.269257a36.570514 36.570514 0 1 1 0-73.141028z m-222.056163 86.745259c-14.335642 35.839104-67.143464 27.866732-70.36167-10.532308C3.218205 406.10459 144.599814 205.55189 438.846172 151.793234V36.596114a36.570514 36.570514 0 0 1 59.02481-28.890707l329.134629 255.993601a36.570514 36.570514 0 0 1 0 57.781412l-329.134629 255.9936A36.570514 36.570514 0 0 1 438.846172 548.583314V441.066002c-142.698147 17.846411-238.074048 142.844429-331.767706 377.115143zM475.416686 365.730742a36.570514 36.570514 0 0 1 36.570514 36.570515v71.531926L745.014517 292.589714 511.9872 111.346245V182.878171a36.570514 36.570514 0 0 1-31.450642 36.204809c-234.124433 33.42545-360.292707 157.106929-374.335784 423.559697C201.064688 460.082669 310.849372 365.730742 475.416686 365.730742z" p-id="4908"></path></svg>