<?xml version="1.0" standalone="no"?><!DOCTYPE svg PUBLIC "-//W3C//DTD SVG 1.1//EN" "http://www.w3.org/Graphics/SVG/1.1/DTD/svg11.dtd"><svg t="1606984575359" class="icon" viewBox="0 0 1024 1024" version="1.1" xmlns="http://www.w3.org/2000/svg" p-id="2986" xmlns:xlink="http://www.w3.org/1999/xlink" width="200" height="200"><defs><style type="text/css"></style></defs><path d="M539.264 901.12H480.6656V466.56512h58.5984V901.12zM323.54816 304.97792C280.34048 261.632 222.55104 172.672 280.0128 114.176c27.40736-27.89376 71.68-34.7904 118.36928-18.432 62.53056 21.89312 130.29376 87.68 140.71808 185.2928l-58.27072 6.28736C473.1392 215.25504 424.18176 167.0656 379.07456 151.2704c-24.41216-8.54528-46.3872-6.9376-57.344 4.20352C295.424 182.272 349.184 247.4496 365.01504 263.43424z m373.19168 0l-41.43616-41.5744 20.71552 20.7872-20.74624-20.75648c15.8464-15.98464 69.632-81.152 43.27424-107.96032-10.9568-11.14624-32.9216-12.75392-57.344-4.20352-45.10208 15.7952-94.06464 64-101.75488 136.05376l-58.2656-6.26688c10.42432-97.6128 78.18752-163.39968 140.71808-185.2928 46.71488-16.3584 90.96192-9.46688 118.3744 18.432 57.46176 58.47552-0.32768 147.43552-43.53536 190.78144z" fill="#FF960B" p-id="2987"></path><path d="M907.66848 254.34112H111.21152A29.35808 29.35808 0 0 0 81.92 283.76064v182.528a29.35808 29.35808 0 0 0 29.29152 29.41952h38.016v405.504a29.35808 29.35808 0 0 0 29.29152 29.42464h661.84704a29.35808 29.35808 0 0 0 29.2864-29.42464v-405.504h38.016A29.35296 29.35296 0 0 0 936.96 466.28864v-182.528a29.35808 29.35808 0 0 0-29.29152-29.41952z m-96.59392 617.472H207.80544V495.70816h603.26912v376.07936z m67.3024-434.9184H140.50304V313.18016h737.87392v123.68896z" fill="#3B4552" p-id="2988"></path></svg>