<?xml version="1.0" standalone="no"?><!DOCTYPE svg PUBLIC "-//W3C//DTD SVG 1.1//EN" "http://www.w3.org/Graphics/SVG/1.1/DTD/svg11.dtd"><svg t="1603090792908" class="icon" viewBox="0 0 1024 1024" version="1.1" xmlns="http://www.w3.org/2000/svg" p-id="3877" xmlns:xlink="http://www.w3.org/1999/xlink" width="32" height="32"><defs><style type="text/css"></style></defs><path d="M638.2 539c-113.2 0-205.3-92.2-205.3-205.5S524.9 128 638.2 128s205.3 92.2 205.3 205.5S751.4 539 638.2 539z m0-361c-85.7 0-155.3 69.8-155.3 155.5S552.6 489 638.2 489s155.3-69.8 155.3-155.5S723.8 178 638.2 178z" fill="" p-id="3878"></path><path d="M316.3 894.2h-50c0-54.4 9.7-107.2 28.9-156.9 18.6-48.2 45.2-91.4 79.2-128.6 34.1-37.4 73.9-66.7 118.2-87.3 46.1-21.4 95-32.2 145.5-32.2v50c-85.5 0-166.1 36.6-226.8 103.2-61.2 67.1-95 156.6-95 251.8zM413.2 536.9c-39.6-8.1-75.7-29.9-101.6-61.2-26.2-31.8-40.7-72.1-40.7-113.4 0-41.3 14.4-81.6 40.7-113.4 25.9-31.4 61.9-53.1 101.5-61.2l10 49C364 248.8 321 301.6 321 362.3c0 60.7 43 113.5 102.3 125.6l-10.1 49zM423.3 236.7l-10-49c11.7-2.4 23.8-3.6 35.9-3.6v50c-8.8 0-17.5 0.8-25.9 2.6z" fill="" p-id="3879"></path><path d="M179.7 838.2h-50c0-93.9 28.1-180.9 79.1-245 26.3-33 57.7-58.9 93.3-76.8C339.5 497.5 380.6 488 424 488v50c-35.6 0-69 7.8-99.4 23.1-29.1 14.7-54.9 36-76.7 63.3-44 55.2-68.2 131.2-68.2 213.8z" fill="" p-id="3880"></path><path d="M610.1 694h200v50h-200z" fill="" p-id="3881"></path><path d="M525.1 844h370v50h-370z" fill="" p-id="3882"></path></svg>