<?xml version="1.0" standalone="no"?><!DOCTYPE svg PUBLIC "-//W3C//DTD SVG 1.1//EN" "http://www.w3.org/Graphics/SVG/1.1/DTD/svg11.dtd"><svg t="1603090775011" class="icon" viewBox="0 0 1024 1024" version="1.1" xmlns="http://www.w3.org/2000/svg" p-id="3723" xmlns:xlink="http://www.w3.org/1999/xlink" width="32" height="32"><defs><style type="text/css"></style></defs><path d="M932.56362529 855.87499971h-305.1c-14.69999971 0-29.40000029-14.69999971-29.40000029-29.39999942s14.69999971-29.40000029 29.40000029-29.40000029h305.1c19.575 0 29.40000029 14.69999971 29.39999942 29.40000029s-14.69999971 29.40000029-29.39999942 29.39999942z m0-93.07499942h-305.1c-14.69999971 0-29.40000029-14.69999971-29.40000029-29.40000029 0-19.575 14.69999971-29.3625 29.40000029-29.3625h305.1c14.69999971 0 29.40000029 14.69999971 29.39999942 29.3625 0 14.69999971-14.69999971 29.40000029-29.39999942 29.40000029z m-163.0125-132.48750058a29.17500029 29.17500029 0 0 1-20.25-8.06249971l-1.50000029-1.27500029a387.63749971 387.63749971 0 0 0-235.4625-79.38749971c-215.775 0-391.31250029 175.42500029-391.31250029 391.01249971a29.54999971 29.54999971 0 0 1-29.51249942 29.3625 29.5875 29.5875 0 0 1-29.51250029-29.43749971 445.98750029 445.98750029 0 0 1 81.29999971-257.47499971 450.37500029 450.37500029 0 0 1 208.0125-162.26250029l27-10.35-21.9375-18.82500029a239.36249971 239.36249971 0 0 1-83.96249942-181.9125C272.41362529 169.55 380.038625 62 512.338625 62c132.3 0 239.9625 107.55 239.9625 239.69999971a239.36249971 239.36249971 0 0 1-83.96250029 181.9125l-21.97499942 18.82500029 27.03749942 10.35c37.64999971 14.4 73.4625 34.01250029 106.46250029 58.3875l8.02500029 6.56250029a29.32499971 29.32499971 0 0 1 11.17499942 23.0625 29.62500029 29.62500029 0 0 1-29.51249942 29.51249942z m-76.275-328.6125a181.0125 181.0125 0 0 0-180.93750029-180.71249942 181.0125 181.0125 0 0 0-180.9 180.71249942 181.0125 181.0125 0 0 0 180.9 180.75000058 181.0125 181.0125 0 0 0 180.93750029-180.75000058z m-65.8125 593.36250029h305.1c19.575 0 29.40000029 14.66250029 29.39999942 29.3625s-14.69999971 29.40000029-29.39999942 29.40000029h-305.1c-14.69999971 0-29.40000029-14.69999971-29.40000029-29.40000029s14.69999971-29.3625 29.40000029-29.3625z" p-id="3724"></path></svg>