<?xml version="1.0" standalone="no"?><!DOCTYPE svg PUBLIC "-//W3C//DTD SVG 1.1//EN" "http://www.w3.org/Graphics/SVG/1.1/DTD/svg11.dtd"><svg t="1610348500129" class="icon" viewBox="0 0 1024 1024" version="1.1" xmlns="http://www.w3.org/2000/svg" p-id="2872" xmlns:xlink="http://www.w3.org/1999/xlink" width="32" height="32"><defs><style type="text/css"></style></defs><path d="M287.5 565c-21.25 0-38.75 17.5-38.75 38.75 0 21.25 17.5 38.75 38.75 38.75 21.25 0 38.75-17.5 38.75-38.75C326.25 582.5 308.75 565 287.5 565L287.5 565zM287.5 727.5 287.5 727.5c-21.25 0-38.75 17.5-38.75 38.75 0 21.25 17.5 38.75 38.75 38.75 21.25 0 38.75-17.5 38.75-38.75C326.25 745 308.75 727.5 287.5 727.5L287.5 727.5zM287.5 403.75 287.5 403.75c-21.25 0-38.75 17.5-38.75 38.75 0 21.25 17.5 38.75 38.75 38.75 21.25 0 38.75-17.5 38.75-38.75C326.25 420 308.75 403.75 287.5 403.75L287.5 403.75zM910 161.25 910 161.25l-105 0 0-21.25c0-12.5-10-22.5-22.5-22.5l-123.75 0c-6.25-27.5-20-51.25-40-71.25-27.5-27.5-65-45-107.5-45-41.25 0-78.75 17.5-106.25 45-18.75 18.75-33.75 42.5-40 71.25l-122.5 0c-12.5 0-23.75 10-23.75 22.5l0 21.25L115 161.25c-21.25 0-38.75 17.5-38.75 38.75l0 785c0 21.25 17.5 38.75 38.75 38.75l795 0c21.25 0 37.5-17.5 37.5-38.75l0-785C947.5 177.5 931.25 161.25 910 161.25L910 161.25zM450 90c18.75-18.75 33.75-31.25 62.5-31.25 28.75 0 43.75 11.25 62.5 31.25 10 10 7.5 12.5 12.5 27.5L436.25 117.5C442.5 102.5 438.75 101.25 450 90M277.5 175 277.5 175l470 0 0 50L277.5 225M871.25 945 871.25 945 152.5 945 152.5 237.5l66.25 0 0 21.25c0 12.5 10 22.5 23.75 22.5l540 0c12.5 0 22.5-10 22.5-22.5L805 237.5l67.5 0L872.5 945 871.25 945zM735 406.25 735 406.25 402.5 406.25c-12.5 0-22.5 22.5-22.5 35 0 12.5 10 35 22.5 35l332.5 0c12.5 0 23.75-22.5 23.75-35C757.5 428.75 747.5 406.25 735 406.25L735 406.25zM735 731.25 735 731.25 402.5 731.25c-12.5 0-22.5 22.5-22.5 35 0 12.5 10 33.75 22.5 33.75l332.5 0c12.5 0 23.75-21.25 23.75-33.75C757.5 752.5 747.5 731.25 735 731.25L735 731.25zM735 568.75 735 568.75 402.5 568.75c-12.5 0-22.5 21.25-22.5 35 0 12.5 10 35 22.5 35l332.5 0c12.5 0 23.75-21.25 23.75-35C757.5 591.25 747.5 568.75 735 568.75L735 568.75z" p-id="2873"></path></svg>