<?xml version="1.0" standalone="no"?><!DOCTYPE svg PUBLIC "-//W3C//DTD SVG 1.1//EN" "http://www.w3.org/Graphics/SVG/1.1/DTD/svg11.dtd"><svg t="1591672762247" class="icon" viewBox="0 0 1024 1024" version="1.1" xmlns="http://www.w3.org/2000/svg" p-id="4673" width="32" height="32" xmlns:xlink="http://www.w3.org/1999/xlink"><defs><style type="text/css"></style></defs><path d="M512 288.6c-78.2 0-141.9 63.6-141.9 141.9S433.8 572.4 512 572.4s141.9-63.6 141.9-141.9S590.2 288.6 512 288.6z m0 243.2c-55.9 0-101.3-45.5-101.3-101.3 0-55.9 45.5-101.3 101.3-101.3s101.3 45.5 101.3 101.3c0 55.9-45.4 101.3-101.3 101.3z" p-id="4674"></path><path d="M704.5 430.5C704.5 324.3 618.2 238 512 238s-192.5 86.4-192.5 192.5C319.5 536.7 405.8 623 512 623s192.5-86.3 192.5-192.5zM512 602.8c-95 0-172.3-77.3-172.3-172.3S417 258.2 512 258.2s172.3 77.3 172.3 172.3S607 602.8 512 602.8z" p-id="4675"></path><path d="M777.1 680.3c15.4-20.4 20-47 11.7-71.7l-14.2-42.7c-5.9-17.7 2.2-37.2 18.8-45.4l40.3-20.1c26.6-13.3 43.2-40.1 43.2-69.8s-16.5-56.5-43.2-69.8l-40.2-20.1c-16.6-8.3-24.7-27.9-18.9-45.5l14.2-42.7c9.4-28.2 2.2-58.9-18.8-79.9-21-21.1-51.7-28.3-79.9-18.8L647.4 168c-17.6 5.9-37.1-2.2-45.5-18.8L581.8 109c-13.3-26.6-40.1-43.2-69.8-43.2-29.8 0-56.5 16.5-69.8 43.2l-20.1 40c-8.3 16.6-27.9 24.7-45.5 18.9l-42.7-14.2c-28.2-9.4-58.9-2.2-79.9 18.8-21 21.1-28.3 51.7-18.8 79.9l14.2 42.7c5.9 17.6-2.2 37.1-18.8 45.5l-40.2 20.1c-26.6 13.3-43.2 40.1-43.2 69.8 0 29.7 16.5 56.5 43.2 69.8l40.2 20.1c16.6 8.3 24.7 27.9 18.9 45.5l-14.2 42.7c-8.8 26.2-3.2 54.5 14.5 75.3l-74.3 159.3c-6.2 13.4-3.8 29.2 6.1 40.2 9.9 10.9 25.2 14.9 39.2 10.2l2.5-0.9 72.7-48.8 10.6 87.5 0.7 2c4.9 14.5 18 24.3 33.2 25h1.7c14.6 0 27.7-8.5 33.6-22l72.7-174c14.5 20.6 38 32.9 63.7 32.9 27.4 0 52.3-14.1 66.5-37.1l74 177.8 0.2 0.4c6 13.5 19 22 33.7 22h1.9c15.3-0.8 28.3-10.7 33-25.2l0.6-1.9 10.6-87.4 72.8 48.8 2.5 0.9c13.8 4.8 29.1 0.8 39-10.1 10-11 12.4-26.8 6.1-40.4l-76-162.8zM344.2 906.4l-9.7-79.8-0.7-2c-6.5-19-27.3-29.3-46.4-23l-2.6 0.9-66.5 44.7 65.3-140c15.9 5.5 33.5 5.8 50.3 0.2l42.7-14.2c17.6-5.9 37.1 2.2 45.5 18.8l1.8 3.7-79.7 190.7zM565.8 694l-1.9 3.9c-1.3 1.7-2.2 3.7-2.9 5.8L545.6 734c-6.5 13-19.1 20.8-33.6 20.8s-27.1-7.8-33.6-20.7l-12.7-25.4c-0.7-2.3-1.7-4.3-3.1-6.2l-4.3-8.6c-8.4-16.8-22.6-30-39.9-37.2-9.6-4-19.7-6-29.9-6-8.3 0-16.6 1.3-24.6 4l-42.7 14.2c-11.4 3.8-23.2 2.1-32.7-4.3-1.1-1.1-2.4-2.1-3.8-2.9-0.7-0.6-1.3-1.2-2-1.8-10.3-10.3-13.7-24.6-9-38.4l14.2-42.7c5.9-17.8 5.2-37.2-2-54.6-7.2-17.3-20.4-31.5-37.2-40l-40.2-20.1c-13-6.5-20.7-19-20.7-33.6 0-14.6 7.8-27.1 20.7-33.6l40.2-20.1c16.8-8.4 30-22.6 37.2-39.9 7.2-17.4 7.9-36.7 2-54.6l-14.2-42.7c-4.6-13.8-1.2-28.1 9-38.4 10.3-10.3 24.6-13.6 38.4-9l42.7 14.2c17.8 5.9 37.2 5.2 54.6-2 17.3-7.2 31.5-20.4 40-37.2l20.1-40.2c6.5-13 19-20.7 33.6-20.7s27.1 7.8 33.6 20.7l20.1 40.2c8.4 16.8 22.6 30 39.9 37.2 17.4 7.2 36.7 7.9 54.6 2l42.7-14.2c13.8-4.6 28.1-1.2 38.4 9 10.3 10.3 13.6 24.6 9 38.4l-14.2 42.7c-5.9 17.8-5.2 37.2 2 54.6 7.2 17.3 20.4 31.5 37.2 40l40.2 20.1c13 6.5 20.7 19 20.7 33.6 0 14.6-7.8 27.1-20.7 33.6l-40.1 20.1c-16.9 8.4-30.1 22.6-37.3 40-7.2 17.4-7.9 36.8-1.9 54.6l14.2 42.7c4.6 13.8 1.2 28.1-9 38.4l-0.4 0.4c-0.9 0.7-1.7 1.4-2.5 2.2-10 8.2-23 10.6-35.5 6.4l-42.7-14.2c-17.8-5.9-37.2-5.2-54.6 2-17.3 7.2-31.5 20.4-40 37.2z m177.9 108.4l-2.6-0.9c-19-6.3-39.4 3.7-46.3 22.6l-0.8 2.2-9.7 80-81.7-195.7c8.7-15.8 27.7-23.3 44.8-17.6l42.7 14.2c18.1 6.1 37.2 5.2 54.2-1.7l65.9 141.3-66.5-44.4z" p-id="4676"></path></svg>