<?xml version="1.0" standalone="no"?><!DOCTYPE svg PUBLIC "-//W3C//DTD SVG 1.1//EN" "http://www.w3.org/Graphics/SVG/1.1/DTD/svg11.dtd"><svg t="1591672702353" class="icon" viewBox="0 0 1024 1024" version="1.1" xmlns="http://www.w3.org/2000/svg" p-id="2773" width="32" height="32" xmlns:xlink="http://www.w3.org/1999/xlink"><defs><style type="text/css"></style></defs><path d="M830.48 864.25V428.09c0-173.91-140.99-314.9-314.9-314.9-173.91 0-314.9 140.99-314.9 314.9v436.16h629.8z" fill="#7BA2D5" p-id="2774"></path><path d="M830.48 879.28h-629.8c-8.3 0-15.03-6.73-15.03-15.03V428.09c0-181.93 148.01-329.94 329.94-329.94s329.94 148.01 329.94 329.94v436.16c-0.02 8.3-6.75 15.03-15.05 15.03z m-614.77-30.07h599.73V428.09c0-165.35-134.52-299.87-299.87-299.87S215.71 262.74 215.71 428.09v421.12z" fill="#49416F" p-id="2775"></path><path d="M624.27 264.02c-0.2 0.74-62.28 228.54-362.44 228.55 0 0.26-0.02 0.52-0.02 0.78v164.93c0 140.15 113.61 253.76 253.76 253.76 140.15 0 253.76-113.61 253.76-253.76V493.35c0-0.26-0.02-0.52-0.02-0.78-157.84-0.02-145.08-227.74-145.04-228.55z" fill="#FFFFFF" p-id="2776"></path><path d="M607.74 304.09c6.66 5.95 12.97 12.28 18.97 18.9-3.86-33.53-2.45-58.7-2.44-58.97-0.05 0.2-4.47 16.39-16.53 40.07zM769.33 493.35c0-0.26-0.02-0.52-0.02-0.78-32.98 0-58.49-9.97-78.25-25.71 0.91 8.71 1.42 17.54 1.42 26.5v164.93c0 127.08-93.42 232.34-215.33 250.86h0.01c3.68 0.56 7.4 1.02 11.13 1.41 1.21 0.13 2.43 0.23 3.64 0.35 2.77 0.26 5.56 0.47 8.36 0.64 1.19 0.07 2.38 0.15 3.57 0.2 3.88 0.18 7.78 0.3 11.71 0.3 30.66 0 60.04-5.44 87.25-15.4 54.41-19.92 100.1-57.95 129.77-106.78 4.24-6.98 8.15-14.17 11.71-21.57 16.04-33.28 25.02-70.6 25.02-110.02V493.35z" fill="#D0E2F3" p-id="2777"></path><path d="M885.59 676.63H769.33V492.57h116.25c3.42 0 6.19 2.77 6.19 6.19v171.67c0.01 3.43-2.76 6.2-6.18 6.2zM145.56 676.63h116.25V492.57H145.56c-3.42 0-6.19 2.77-6.19 6.19v171.67c0 3.43 2.77 6.2 6.19 6.2z" fill="#EE8C98" p-id="2778"></path><path d="M841.27 691.66h-71.93c-8.3 0-15.03-6.73-15.03-15.03V492.57c0-8.3 6.73-15.03 15.03-15.03h71.93c36.14 0 65.55 29.4 65.55 65.55v83.04c-0.01 36.13-29.41 65.53-65.55 65.53z m-56.9-30.07h56.9c19.56 0 35.48-15.92 35.48-35.48v-83.04c0-19.56-15.92-35.48-35.48-35.48h-56.9v154zM261.81 691.66h-71.93c-36.14 0-65.55-29.4-65.55-65.55v-83.04c0-36.14 29.4-65.55 65.55-65.55h71.93c8.3 0 15.03 6.73 15.03 15.03v184.06c0.01 8.32-6.72 15.05-15.03 15.05zM189.88 507.6c-19.56 0-35.48 15.92-35.48 35.48v83.04c0 19.56 15.92 35.48 35.48 35.48h56.9v-154h-56.9z" fill="#49416F" p-id="2779"></path><path d="M515.57 927.07c-148.21 0-268.79-120.58-268.79-268.79V493.35c0-0.33 0.01-0.66 0.02-0.99 0.04-8.28 6.76-14.83 15.03-14.83 119.66 0 214.49-36.45 281.87-108.32 50.45-53.82 65.91-108.59 66.06-109.14 2.04-7.42 9.35-12.11 16.94-10.87 7.59 1.25 13.02 8 12.58 15.68-0.07 1.19-6.07 120.69 49.96 179.95 20.8 22 46.99 32.69 80.07 32.7 8.23 0 14.93 6.62 15.03 14.84 0.01 0.37 0.02 0.68 0.02 0.98v164.93c0.01 148.21-120.57 268.79-268.79 268.79zM276.85 507.41v150.87C276.85 789.91 383.94 897 515.57 897s238.72-107.09 238.72-238.72V506.95c-34.62-3.08-63.82-17.01-86.97-41.52-35.93-38.05-49.97-94.26-55.29-137.81-10.88 18.63-25.69 39.9-45.5 61.19-48.8 52.47-138.31 114.71-289.68 118.6z" fill="#49416F" p-id="2780"></path><path d="M830.48 794.05h-314.9c-8.3 0-15.03-6.73-15.03-15.03 0-8.3 6.73-15.03 15.03-15.03h299.87v-87.35c0-8.3 6.73-15.03 15.03-15.03s15.03 6.73 15.03 15.03v102.39c0 8.29-6.73 15.02-15.03 15.02z" fill="#49416F" p-id="2781"></path><path d="M543.78 818.31h-56.42c-21.7 0-39.29-17.59-39.29-39.29s17.59-39.29 39.29-39.29h56.42c21.7 0 39.29 17.59 39.29 39.29s-17.59 39.29-39.29 39.29z" fill="#EE8C98" p-id="2782"></path><path d="M543.78 833.34h-56.42c-29.95 0-54.33-24.37-54.33-54.32s24.37-54.32 54.33-54.32h56.42c29.95 0 54.32 24.37 54.32 54.32 0.01 29.95-24.36 54.32-54.32 54.32z m-56.41-78.58c-13.38 0-24.26 10.88-24.26 24.26s10.88 24.26 24.26 24.26h56.42c13.38 0 24.26-10.88 24.26-24.26s-10.88-24.26-24.26-24.26h-56.42z" fill="#49416F" p-id="2783"></path></svg>