<?xml version="1.0" standalone="no"?><!DOCTYPE svg PUBLIC "-//W3C//DTD SVG 1.1//EN" "http://www.w3.org/Graphics/SVG/1.1/DTD/svg11.dtd"><svg t="1591672736120" class="icon" viewBox="0 0 1076 1024" version="1.1" xmlns="http://www.w3.org/2000/svg" p-id="3730" width="16.8125" height="16" xmlns:xlink="http://www.w3.org/1999/xlink"><defs><style type="text/css"></style></defs><path d="M1014.058568 798.285785 58.23974 798.285785c-17.61064 0-31.859905 14.014457-31.859905 31.608841s14.249265 31.608841 31.859905 31.608841l955.817022 0c17.61064 0 31.859905-14.014457 31.859905-31.608841S1031.669208 798.285785 1014.058568 798.285785z" p-id="3731"></path><path d="M1046.879382 189.07686c-0.343182-2.364341-1.463038-4.703395-2.34086-6.96117-0.872404-2.243325-2.776159-4.08025-4.109149-6.041804-0.881435-1.305897-1.54793-2.79964-2.646112-3.99897-0.16256-0.17701-0.51116-0.234809-0.677332-0.408206-1.683397-1.761064-3.868922-2.9333-5.915369-4.269903-1.4522-0.944653-2.749066-2.203588-4.311446-2.888145-1.46665-0.64482-3.16269-0.713457-4.734101-1.134306-2.461877-0.652045-4.871374-1.968779-7.403694-2.02116-0.236615-0.005419-0.442524-0.662883-0.682751-0.662883L822.895525 160.690315c-17.61064 0-31.859905 14.014457-31.859905 31.608841s14.249265 31.608841 31.859905 31.608841l109.25099 0L632.695197 499.188485 367.511474 234.411162c-12.444852-12.444852-32.60768-12.251587-45.052532 0.195072L35.714377 521.448334c-12.444852 12.444852-12.444852 32.656448 0 45.1013s32.60768 12.470139 45.052532 0.023481l264.219202-264.206558L609.205313 566.592983c6.19172 6.207976 14.373894 9.336348 22.527169 9.336348 7.71617 0 17.558259-2.783384 23.656056-8.368215l331.061965-301.523052 0 118.73003c0 17.594384 13.998201 31.859905 31.608841 31.859905s31.608841-14.265521 31.608841-31.859905L1049.668185 193.606858C1049.666379 191.999323 1047.108772 190.619371 1046.879382 189.07686z" p-id="3732"></path></svg>