<?xml version="1.0" standalone="no"?><!DOCTYPE svg PUBLIC "-//W3C//DTD SVG 1.1//EN" "http://www.w3.org/Graphics/SVG/1.1/DTD/svg11.dtd"><svg t="1597889635358" class="icon" viewBox="0 0 1024 1024" version="1.1" xmlns="http://www.w3.org/2000/svg" p-id="3254" xmlns:xlink="http://www.w3.org/1999/xlink" width="32" height="32"><defs><style type="text/css"></style></defs><path d="M229.888 875.008c-28.672 0-39.936-10.752-39.936-39.936V234.496c0-29.184 13.824-36.864 42.496-36.864h51.2c9.728 0 20.48-12.288 20.48-27.136 0-11.776-7.68-27.136-19.456-27.136H212.48c-48.128 0-76.8 28.16-76.8 76.8v628.736c0 48.128 30.208 76.8 76.8 76.8h269.824s-25.6-27.136-36.352-50.176l-216.064-0.512zM685.056 198.144h58.368c28.672 0 36.864 9.728 36.864 38.912v209.408c12.288 6.144 41.472 20.48 52.224 27.648V220.16c0-48.128-28.16-76.8-76.8-76.8h-71.168c-11.776 0-20.48 15.872-20.48 28.16 0.512 13.824 11.264 26.624 20.992 26.624z" p-id="3255"></path><path d="M268.8 290.816c0 21.504 14.336 40.96 36.352 40.96h358.4c21.504 0 36.352-19.456 36.352-40.96s-14.336-40.96-36.352-40.96H588.8V160.768c0-34.304-27.648-62.464-62.464-62.464H442.368c-34.304 0-62.464 27.648-62.464 62.464v89.088H305.152c-22.016-0.512-36.352 18.944-36.352 40.96z m215.552-153.6c22.528 0 41.472 18.432 41.472 41.472 0 22.528-18.432 41.472-41.472 41.472-22.528 0-41.472-18.432-41.472-41.472s18.432-41.472 41.472-41.472zM609.28 424.448H305.152c-21.504 0-36.352 19.456-36.352 40.96s14.336 40.96 36.352 40.96h159.232c37.888-37.888 90.624-69.632 144.896-81.92zM268.8 635.904c0 21.504 13.312 40.96 35.328 40.96h92.16c4.096-29.696 12.288-58.88 31.232-81.92H305.152c-22.016 0-36.352 19.456-36.352 40.96zM694.272 673.792h28.16c3.584 0 6.656-3.072 6.656-6.144v-13.824h-34.816v19.968zM694.272 616.448h34.816v20.48h-34.816z" p-id="3256"></path><path d="M673.792 497.152c-118.272 0-214.016 95.744-214.016 214.016 0 118.272 95.744 214.016 214.016 214.016 118.272 0 214.016-95.744 214.016-214.016 0.512-117.76-95.744-214.016-214.016-214.016z m-23.552 102.4h122.88v69.632c0 11.264-9.728 20.992-22.016 20.992H650.24v-90.624z m-10.24 55.296h-13.312v61.44l13.312-3.072v16.896l-13.312 3.072v51.712c0 11.776-11.264 20.992-24.576 20.992h-31.232v-16.896h4.608c4.096 0 7.168-2.56 7.168-6.144v-39.424l-12.8 3.072v-16.896l12.8-3.072v-72.192h-12.8v-16.896h12.8v-40.96h44.032v40.96h13.312v17.408z m137.728 61.44h-29.184v24.064h26.624v16.896h-26.624v32.768h29.184v16.896h-77.824l-13.824-10.752-1.024 10.752H645.12l9.216-80.384h39.424l-3.584 33.792 11.264 9.216v-53.248h-56.32v-16.896h132.608v16.896z" p-id="3257"></path></svg>