<?xml version="1.0" standalone="no"?><!DOCTYPE svg PUBLIC "-//W3C//DTD SVG 1.1//EN" "http://www.w3.org/Graphics/SVG/1.1/DTD/svg11.dtd"><svg t="1610348480480" class="icon" viewBox="0 0 1024 1024" version="1.1" xmlns="http://www.w3.org/2000/svg" p-id="2610" width="32" height="32" xmlns:xlink="http://www.w3.org/1999/xlink"><defs><style type="text/css"></style></defs><path d="M928 256c17.6 0 32-14.4 32-32V96c0-52.8-43.2-96-96-96H160C107.2 0 64 43.2 64 96v832c0 52.8 43.2 96 96 96h521.6c1.6 0 1.6 0 3.2-1.6 1.6 0 1.6-1.6 3.2-1.6s1.6-1.6 3.2-1.6 1.6-1.6 1.6-1.6l1.6-1.6 256-240c6.4-6.4 9.6-14.4 9.6-24V416c0-17.6-14.4-32-32-32s-32 14.4-32 32v288H672c-17.6 0-32 14.4-32 32v224H160c-17.6 0-32-14.4-32-32V96c0-17.6 14.4-32 32-32h704c17.6 0 32 14.4 32 32v128c0 17.6 14.4 32 32 32z m-64 512l-160 150.4V768h160z" fill="#211B13" p-id="2611"></path><path d="M704 288H320c-17.6 0-32 14.4-32 32s14.4 32 32 32h384c17.6 0 32-14.4 32-32s-14.4-32-32-32zM736 512c0-17.6-14.4-32-32-32H320c-17.6 0-32 14.4-32 32s14.4 32 32 32h384c17.6 0 32-14.4 32-32zM320 672c-17.6 0-32 14.4-32 32s14.4 32 32 32h192c17.6 0 32-14.4 32-32s-14.4-32-32-32H320z" fill="#FFB243" p-id="2612"></path></svg>