<?xml version="1.0" standalone="no"?><!DOCTYPE svg PUBLIC "-//W3C//DTD SVG 1.1//EN" "http://www.w3.org/Graphics/SVG/1.1/DTD/svg11.dtd"><svg t="1597889612981" class="icon" viewBox="0 0 1024 1024" version="1.1" xmlns="http://www.w3.org/2000/svg" p-id="3083" xmlns:xlink="http://www.w3.org/1999/xlink" width="32" height="32"><defs><style type="text/css"></style></defs><path d="M832 512a64 64 0 0 1 64 64v160a64 64 0 0 1-64 64h-96v32h96v64h-256v-64h96v-32h-96a64 64 0 0 1-64-64v-160a64 64 0 0 1 64-64h256zM160 608h63.776L224 800a32 32 0 0 0 28.256 31.776L256 832h192v63.776L416 896H256a96 96 0 0 1-95.84-90.368L160 800v-192z m672-32h-256v160h256v-160zM448 128a64 64 0 0 1 64 64v160a64 64 0 0 1-64 64h-96v32h96v64H192v-64h96v-32H192a64 64 0 0 1-64-64V192a64 64 0 0 1 64-64h256z m320 32a96 96 0 0 1 95.84 90.368L864 256v192h-63.776L800 256a32 32 0 0 0-28.256-31.776L768 224h-192V160.224L608 160h160zM448 192H192v160h256V192z" p-id="3084"></path></svg>